<svg width="128" height="128" viewBox="0 0 128 128" fill="none" xmlns="http://www.w3.org/2000/svg">
<rect width="128" height="128" fill="#1E1E1E"/>
<rect width="128" height="128" fill="white"/>
<rect x="12" y="66" width="104" height="16" fill="#2C2C2C"/>
<rect x="110" y="58" width="12" height="32" rx="6" fill="#2C2C2C"/>
<rect x="6" y="58" width="12" height="32" rx="6" fill="#2C2C2C"/>
<g filter="url(#filter0_d_0_1)">
<path d="M58.3415 59.2195V60H57.561V59.2195H58.3415ZM58.3415 58.439V59.2195H57.561V58.439H58.3415ZM58.3415 57.6585V58.439H57.561V57.6585H58.3415ZM58.3415 56.878V57.6585H57.561V56.878H58.3415ZM58.3415 56.0976V56.878H57.561V56.0976H58.3415ZM58.3415 55.3171V56.0976H57.561V55.3171H58.3415ZM58.3415 54.5366V55.3171H57.561V54.5366H58.3415ZM58.3415 53.7561V54.5366H57.561V53.7561H58.3415ZM58.3415 52.9756V53.7561H57.561V52.9756H58.3415ZM58.3415 52.1951V52.9756H57.561V52.1951H58.3415ZM58.3415 51.4146V52.1951H57.561V51.4146H58.3415ZM58.3415 50.6341V51.4146H57.561V50.6341H58.3415ZM58.3415 49.8537V50.6341H57.561V49.8537H58.3415ZM58.3415 49.0732V49.8537H57.561V49.0732H58.3415ZM58.3415 48.2927V49.0732H57.561V48.2927H58.3415ZM59.122 48.2927V49.0732H58.3415V48.2927H59.122ZM59.122 49.0732V49.8537H58.3415V49.0732H59.122ZM59.122 49.8537V50.6341H58.3415V49.8537H59.122ZM59.122 50.6341V51.4146H58.3415V50.6341H59.122ZM59.122 51.4146V52.1951H58.3415V51.4146H59.122ZM59.122 52.1951V52.9756H58.3415V52.1951H59.122ZM59.122 52.9756V53.7561H58.3415V52.9756H59.122ZM59.9024 53.7561V54.5366H59.122V53.7561H59.9024ZM59.9024 54.5366V55.3171H59.122V54.5366H59.9024ZM59.9024 55.3171V56.0976H59.122V55.3171H59.9024ZM59.9024 56.0976V56.878H59.122V56.0976H59.9024ZM59.9024 56.878V57.6585H59.122V56.878H59.9024ZM59.9024 57.6585V58.439H59.122V57.6585H59.9024ZM59.9024 58.439V59.2195H59.122V58.439H59.9024ZM59.9024 59.2195V60H59.122V59.2195H59.9024ZM60.6829 59.2195V60H59.9024V59.2195H60.6829ZM61.4634 59.2195V60H60.6829V59.2195H61.4634ZM61.4634 58.439V59.2195H60.6829V58.439H61.4634ZM61.4634 57.6585V58.439H60.6829V57.6585H61.4634ZM61.4634 56.878V57.6585H60.6829V56.878H61.4634ZM61.4634 56.0976V56.878H60.6829V56.0976H61.4634ZM61.4634 55.3171V56.0976H60.6829V55.3171H61.4634ZM61.4634 54.5366V55.3171H60.6829V54.5366H61.4634ZM61.4634 53.7561V54.5366H60.6829V53.7561H61.4634ZM60.6829 53.7561V54.5366H59.9024V53.7561H60.6829ZM60.6829 52.9756V53.7561H59.9024V52.9756H60.6829ZM60.6829 54.5366V55.3171H59.9024V54.5366H60.6829ZM60.6829 55.3171V56.0976H59.9024V55.3171H60.6829ZM60.6829 56.0976V56.878H59.9024V56.0976H60.6829ZM60.6829 56.878V57.6585H59.9024V56.878H60.6829ZM60.6829 57.6585V58.439H59.9024V57.6585H60.6829ZM60.6829 58.439V59.2195H59.9024V58.439H60.6829ZM59.122 59.2195V60H58.3415V59.2195H59.122ZM59.122 58.439V59.2195H58.3415V58.439H59.122ZM59.122 57.6585V58.439H58.3415V57.6585H59.122ZM59.122 56.878V57.6585H58.3415V56.878H59.122ZM59.122 56.0976V56.878H58.3415V56.0976H59.122ZM59.122 55.3171V56.0976H58.3415V55.3171H59.122ZM59.122 54.5366V55.3171H58.3415V54.5366H59.122ZM59.122 53.7561V54.5366H58.3415V53.7561H59.122ZM58.3415 45.9512V46.7317H57.561V45.9512H58.3415ZM58.3415 46.7317V47.5122H57.561V46.7317H58.3415ZM58.3415 47.5122V48.2927H57.561V47.5122H58.3415ZM60.6829 44.3902V45.1707H59.9024V44.3902H60.6829ZM60.6829 45.9512V46.7317H59.9024V45.9512H60.6829ZM60.6829 46.7317V47.5122H59.9024V46.7317H60.6829ZM60.6829 47.5122V48.2927H59.9024V47.5122H60.6829ZM60.6829 48.2927V49.0732H59.9024V48.2927H60.6829ZM60.6829 49.0732V49.8537H59.9024V49.0732H60.6829ZM60.6829 49.8537V50.6341H59.9024V49.8537H60.6829ZM60.6829 50.6341V51.4146H59.9024V50.6341H60.6829ZM61.4634 51.4146V52.1951H60.6829V51.4146H61.4634ZM61.4634 52.1951V52.9756H60.6829V52.1951H61.4634ZM61.4634 52.9756V53.7561H60.6829V52.9756H61.4634ZM61.4634 50.6341V51.4146H60.6829V50.6341H61.4634ZM61.4634 49.8537V50.6341H60.6829V49.8537H61.4634ZM61.4634 49.0732V49.8537H60.6829V49.0732H61.4634ZM61.4634 48.2927V49.0732H60.6829V48.2927H61.4634ZM61.4634 47.5122V48.2927H60.6829V47.5122H61.4634ZM61.4634 46.7317V47.5122H60.6829V46.7317H61.4634ZM61.4634 45.9512V46.7317H60.6829V45.9512H61.4634ZM61.4634 45.1707V45.9512H60.6829V45.1707H61.4634ZM61.4634 44.3902V45.1707H60.6829V44.3902H61.4634ZM61.4634 43.6098V44.3902H60.6829V43.6098H61.4634ZM60.6829 45.1707V45.9512H59.9024V45.1707H60.6829ZM61.4634 42.8293V43.6098H60.6829V42.8293H61.4634ZM61.4634 42.0488V42.8293H60.6829V42.0488H61.4634ZM59.9024 44.3902V45.1707H59.122V44.3902H59.9024ZM59.9024 45.1707V45.9512H59.122V45.1707H59.9024ZM59.9024 45.9512V46.7317H59.122V45.9512H59.9024ZM59.122 46.7317V47.5122H58.3415V46.7317H59.122ZM59.122 47.5122V48.2927H58.3415V47.5122H59.122ZM59.122 45.9512V46.7317H58.3415V45.9512H59.122ZM59.122 45.1707V45.9512H58.3415V45.1707H59.122ZM59.9024 46.7317V47.5122H59.122V46.7317H59.9024ZM59.9024 47.5122V48.2927H59.122V47.5122H59.9024ZM59.9024 48.2927V49.0732H59.122V48.2927H59.9024ZM59.9024 49.0732V49.8537H59.122V49.0732H59.9024ZM59.9024 49.8537V50.6341H59.122V49.8537H59.9024ZM59.9024 50.6341V51.4146H59.122V50.6341H59.9024ZM59.9024 51.4146V52.1951H59.122V51.4146H59.9024ZM59.9024 52.1951V52.9756H59.122V52.1951H59.9024ZM59.9024 52.9756V53.7561H59.122V52.9756H59.9024ZM60.6829 52.1951V52.9756H59.9024V52.1951H60.6829ZM60.6829 51.4146V52.1951H59.9024V51.4146H60.6829ZM66.9268 59.2195V60H66.1463V59.2195H66.9268ZM66.9268 58.439V59.2195H66.1463V58.439H66.9268ZM66.9268 57.6585V58.439H66.1463V57.6585H66.9268ZM66.9268 56.878V57.6585H66.1463V56.878H66.9268ZM66.9268 56.0976V56.878H66.1463V56.0976H66.9268ZM66.9268 55.3171V56.0976H66.1463V55.3171H66.9268ZM66.9268 54.5366V55.3171H66.1463V54.5366H66.9268ZM66.9268 53.7561V54.5366H66.1463V53.7561H66.9268ZM66.9268 52.9756V53.7561H66.1463V52.9756H66.9268ZM66.9268 52.1951V52.9756H66.1463V52.1951H66.9268ZM66.9268 51.4146V52.1951H66.1463V51.4146H66.9268ZM66.9268 50.6341V51.4146H66.1463V50.6341H66.9268ZM66.9268 49.8537V50.6341H66.1463V49.8537H66.9268ZM66.9268 49.0732V49.8537H66.1463V49.0732H66.9268ZM66.9268 48.2927V49.0732H66.1463V48.2927H66.9268ZM67.7073 48.2927V49.0732H66.9268V48.2927H67.7073ZM67.7073 49.0732V49.8537H66.9268V49.0732H67.7073ZM67.7073 49.8537V50.6341H66.9268V49.8537H67.7073ZM67.7073 50.6341V51.4146H66.9268V50.6341H67.7073ZM67.7073 51.4146V52.1951H66.9268V51.4146H67.7073ZM67.7073 52.1951V52.9756H66.9268V52.1951H67.7073ZM67.7073 52.9756V53.7561H66.9268V52.9756H67.7073ZM68.4878 53.7561V54.5366H67.7073V53.7561H68.4878ZM68.4878 54.5366V55.3171H67.7073V54.5366H68.4878ZM68.4878 55.3171V56.0976H67.7073V55.3171H68.4878ZM68.4878 56.0976V56.878H67.7073V56.0976H68.4878ZM68.4878 56.878V57.6585H67.7073V56.878H68.4878ZM68.4878 57.6585V58.439H67.7073V57.6585H68.4878ZM68.4878 58.439V59.2195H67.7073V58.439H68.4878ZM68.4878 59.2195V60H67.7073V59.2195H68.4878ZM69.2683 59.2195V60H68.4878V59.2195H69.2683ZM70.0488 59.2195V60H69.2683V59.2195H70.0488ZM70.0488 58.439V59.2195H69.2683V58.439H70.0488ZM70.0488 57.6585V58.439H69.2683V57.6585H70.0488ZM70.0488 56.878V57.6585H69.2683V56.878H70.0488ZM70.0488 56.0976V56.878H69.2683V56.0976H70.0488ZM70.0488 55.3171V56.0976H69.2683V55.3171H70.0488ZM70.0488 54.5366V55.3171H69.2683V54.5366H70.0488ZM70.0488 53.7561V54.5366H69.2683V53.7561H70.0488ZM69.2683 53.7561V54.5366H68.4878V53.7561H69.2683ZM69.2683 52.9756V53.7561H68.4878V52.9756H69.2683ZM69.2683 54.5366V55.3171H68.4878V54.5366H69.2683ZM69.2683 55.3171V56.0976H68.4878V55.3171H69.2683ZM69.2683 56.0976V56.878H68.4878V56.0976H69.2683ZM69.2683 56.878V57.6585H68.4878V56.878H69.2683ZM69.2683 57.6585V58.439H68.4878V57.6585H69.2683ZM69.2683 58.439V59.2195H68.4878V58.439H69.2683ZM67.7073 59.2195V60H66.9268V59.2195H67.7073ZM67.7073 58.439V59.2195H66.9268V58.439H67.7073ZM67.7073 57.6585V58.439H66.9268V57.6585H67.7073ZM67.7073 56.878V57.6585H66.9268V56.878H67.7073ZM67.7073 56.0976V56.878H66.9268V56.0976H67.7073ZM67.7073 55.3171V56.0976H66.9268V55.3171H67.7073ZM67.7073 54.5366V55.3171H66.9268V54.5366H67.7073ZM67.7073 53.7561V54.5366H66.9268V53.7561H67.7073ZM66.9268 42.0488V42.8293H66.1463V42.0488H66.9268ZM66.9268 42.8293V43.6098H66.1463V42.8293H66.9268ZM66.9268 43.6098V44.3902H66.1463V43.6098H66.9268ZM66.9268 44.3902V45.1707H66.1463V44.3902H66.9268ZM66.9268 45.1707V45.9512H66.1463V45.1707H66.9268ZM66.9268 45.9512V46.7317H66.1463V45.9512H66.9268ZM66.9268 46.7317V47.5122H66.1463V46.7317H66.9268ZM66.9268 47.5122V48.2927H66.1463V47.5122H66.9268ZM69.2683 44.3902V45.1707H68.4878V44.3902H69.2683ZM69.2683 45.9512V46.7317H68.4878V45.9512H69.2683ZM69.2683 46.7317V47.5122H68.4878V46.7317H69.2683ZM69.2683 47.5122V48.2927H68.4878V47.5122H69.2683ZM69.2683 48.2927V49.0732H68.4878V48.2927H69.2683ZM69.2683 49.0732V49.8537H68.4878V49.0732H69.2683ZM69.2683 49.8537V50.6341H68.4878V49.8537H69.2683ZM69.2683 50.6341V51.4146H68.4878V50.6341H69.2683ZM70.0488 51.4146V52.1951H69.2683V51.4146H70.0488ZM70.0488 52.1951V52.9756H69.2683V52.1951H70.0488ZM70.0488 52.9756V53.7561H69.2683V52.9756H70.0488ZM70.0488 50.6341V51.4146H69.2683V50.6341H70.0488ZM70.0488 49.8537V50.6341H69.2683V49.8537H70.0488ZM70.0488 49.0732V49.8537H69.2683V49.0732H70.0488ZM70.0488 48.2927V49.0732H69.2683V48.2927H70.0488ZM70.0488 47.5122V48.2927H69.2683V47.5122H70.0488ZM70.0488 46.7317V47.5122H69.2683V46.7317H70.0488ZM70.0488 45.9512V46.7317H69.2683V45.9512H70.0488ZM70.0488 45.1707V45.9512H69.2683V45.1707H70.0488ZM69.2683 45.1707V45.9512H68.4878V45.1707H69.2683ZM68.4878 43.6098V44.3902H67.7073V43.6098H68.4878ZM68.4878 44.3902V45.1707H67.7073V44.3902H68.4878ZM68.4878 45.1707V45.9512H67.7073V45.1707H68.4878ZM68.4878 45.9512V46.7317H67.7073V45.9512H68.4878ZM67.7073 46.7317V47.5122H66.9268V46.7317H67.7073ZM67.7073 47.5122V48.2927H66.9268V47.5122H67.7073ZM67.7073 45.9512V46.7317H66.9268V45.9512H67.7073ZM67.7073 45.1707V45.9512H66.9268V45.1707H67.7073ZM67.7073 44.3902V45.1707H66.9268V44.3902H67.7073ZM67.7073 43.6098V44.3902H66.9268V43.6098H67.7073ZM67.7073 42.8293V43.6098H66.9268V42.8293H67.7073ZM68.4878 46.7317V47.5122H67.7073V46.7317H68.4878ZM68.4878 47.5122V48.2927H67.7073V47.5122H68.4878ZM68.4878 48.2927V49.0732H67.7073V48.2927H68.4878ZM68.4878 49.0732V49.8537H67.7073V49.0732H68.4878ZM68.4878 49.8537V50.6341H67.7073V49.8537H68.4878ZM68.4878 50.6341V51.4146H67.7073V50.6341H68.4878ZM68.4878 51.4146V52.1951H67.7073V51.4146H68.4878ZM68.4878 52.1951V52.9756H67.7073V52.1951H68.4878ZM68.4878 52.9756V53.7561H67.7073V52.9756H68.4878ZM69.2683 52.1951V52.9756H68.4878V52.1951H69.2683ZM69.2683 51.4146V52.1951H68.4878V51.4146H69.2683ZM63.0244 40.4878V41.2683H62.2439V40.4878H63.0244ZM63.8049 40.4878V41.2683H63.0244V40.4878H63.8049ZM64.5854 40.4878V41.2683H63.8049V40.4878H64.5854ZM65.3659 40.4878V41.2683H64.5854V40.4878H65.3659ZM66.1463 41.2683V42.0488H65.3659V41.2683H66.1463ZM65.3659 41.2683V42.0488H64.5854V41.2683H65.3659ZM64.5854 41.2683V42.0488H63.8049V41.2683H64.5854ZM63.8049 41.2683V42.0488H63.0244V41.2683H63.8049ZM63.0244 41.2683V42.0488H62.2439V41.2683H63.0244ZM62.2439 41.2683V42.0488H61.4634V41.2683H62.2439ZM62.2439 42.0488V42.8293H61.4634V42.0488H62.2439ZM62.2439 42.8293V43.6098H61.4634V42.8293H62.2439ZM63.0244 42.0488V42.8293H62.2439V42.0488H63.0244ZM63.8049 42.0488V42.8293H63.0244V42.0488H63.8049ZM64.5854 42.0488V42.8293H63.8049V42.0488H64.5854ZM65.3659 42.0488V42.8293H64.5854V42.0488H65.3659ZM66.1463 42.0488V42.8293H65.3659V42.0488H66.1463ZM66.1463 42.8293V43.6098H65.3659V42.8293H66.1463ZM65.3659 42.8293V43.6098H64.5854V42.8293H65.3659ZM64.5854 42.8293V43.6098H63.8049V42.8293H64.5854ZM63.8049 42.8293V43.6098H63.0244V42.8293H63.8049ZM63.0244 42.8293V43.6098H62.2439V42.8293H63.0244ZM62.2439 43.6098V44.3902H61.4634V43.6098H62.2439ZM63.0244 43.6098V44.3902H62.2439V43.6098H63.0244ZM66.1463 43.6098V44.3902H65.3659V43.6098H66.1463ZM65.3659 43.6098V44.3902H64.5854V43.6098H65.3659ZM66.1463 44.3902V45.1707H65.3659V44.3902H66.1463ZM62.2439 44.3902V45.1707H61.4634V44.3902H62.2439ZM60.6829 42.8293V43.6098H59.9024V42.8293H60.6829ZM60.6829 43.6098V44.3902H59.9024V43.6098H60.6829ZM59.9024 43.6098V44.3902H59.122V43.6098H59.9024ZM59.122 44.3902V45.1707H58.3415V44.3902H59.122ZM58.3415 45.1707V45.9512H57.561V45.1707H58.3415ZM62.2439 45.1707V45.9512H61.4634V45.1707H62.2439ZM63.0244 44.3902V45.1707H62.2439V44.3902H63.0244ZM63.8049 43.6098V44.3902H63.0244V43.6098H63.8049ZM64.5854 43.6098V44.3902H63.8049V43.6098H64.5854ZM65.3659 44.3902V45.1707H64.5854V44.3902H65.3659ZM66.1463 45.1707V45.9512H65.3659V45.1707H66.1463ZM62.2439 54.5366V55.3171H61.4634V54.5366H62.2439ZM63.0244 54.5366V55.3171H62.2439V54.5366H63.0244ZM63.8049 54.5366V55.3171H63.0244V54.5366H63.8049ZM64.5854 54.5366V55.3171H63.8049V54.5366H64.5854ZM65.3659 54.5366V55.3171H64.5854V54.5366H65.3659ZM66.1463 54.5366V55.3171H65.3659V54.5366H66.1463ZM66.1463 53.7561V54.5366H65.3659V53.7561H66.1463ZM65.3659 53.7561V54.5366H64.5854V53.7561H65.3659ZM64.5854 53.7561V54.5366H63.8049V53.7561H64.5854ZM63.8049 53.7561V54.5366H63.0244V53.7561H63.8049ZM63.0244 53.7561V54.5366H62.2439V53.7561H63.0244ZM62.2439 53.7561V54.5366H61.4634V53.7561H62.2439ZM62.2439 52.9756V53.7561H61.4634V52.9756H62.2439ZM63.0244 52.9756V53.7561H62.2439V52.9756H63.0244ZM63.8049 52.9756V53.7561H63.0244V52.9756H63.8049ZM64.5854 52.9756V53.7561H63.8049V52.9756H64.5854ZM65.3659 52.9756V53.7561H64.5854V52.9756H65.3659ZM66.1463 52.9756V53.7561H65.3659V52.9756H66.1463ZM66.1463 52.1951V52.9756H65.3659V52.1951H66.1463ZM65.3659 52.1951V52.9756H64.5854V52.1951H65.3659ZM64.5854 52.1951V52.9756H63.8049V52.1951H64.5854ZM63.8049 52.1951V52.9756H63.0244V52.1951H63.8049ZM63.0244 52.1951V52.9756H62.2439V52.1951H63.0244ZM62.2439 52.1951V52.9756H61.4634V52.1951H62.2439ZM62.2439 51.4146V52.1951H61.4634V51.4146H62.2439ZM63.0244 51.4146V52.1951H62.2439V51.4146H63.0244ZM63.8049 51.4146V52.1951H63.0244V51.4146H63.8049ZM64.5854 51.4146V52.1951H63.8049V51.4146H64.5854ZM65.3659 51.4146V52.1951H64.5854V51.4146H65.3659ZM66.1463 51.4146V52.1951H65.3659V51.4146H66.1463ZM63.8049 44.3902V45.1707H63.0244V44.3902H63.8049ZM64.5854 44.3902V45.1707H63.8049V44.3902H64.5854ZM63.0244 45.1707V45.9512H62.2439V45.1707H63.0244ZM62.2439 45.9512V46.7317H61.4634V45.9512H62.2439ZM65.3659 45.1707V45.9512H64.5854V45.1707H65.3659ZM66.1463 45.9512V46.7317H65.3659V45.9512H66.1463Z" fill="#2C2C2C"/>
</g>
<defs>
<filter id="filter0_d_0_1" x="53.561" y="40.4878" width="20.4878" height="27.5122" filterUnits="userSpaceOnUse" color-interpolation-filters="sRGB">
<feFlood flood-opacity="0" result="BackgroundImageFix"/>
<feColorMatrix in="SourceAlpha" type="matrix" values="0 0 0 0 0 0 0 0 0 0 0 0 0 0 0 0 0 0 127 0" result="hardAlpha"/>
<feOffset dy="4"/>
<feGaussianBlur stdDeviation="2"/>
<feComposite in2="hardAlpha" operator="out"/>
<feColorMatrix type="matrix" values="0 0 0 0 0 0 0 0 0 0 0 0 0 0 0 0 0 0 0.25 0"/>
<feBlend mode="normal" in2="BackgroundImageFix" result="effect1_dropShadow_0_1"/>
<feBlend mode="normal" in="SourceGraphic" in2="effect1_dropShadow_0_1" result="shape"/>
</filter>
</defs>
</svg>
